# xmcd CD database file
#
# Track frame offsets:
#	150
#	1545
#	22561
#	35481
#	49189
#	66502
#	79134
#	95561
#	109373
#	122911
#
# Disc length: 1973 seconds
#
# Revision: 0
# Processed by: cddbd v1.5PL3 Copyright (c) Steve Scherf et al.
# Submitted via: CDex 1.51
#
DISCID=7807b30a
DTITLE=Monica Zetterland - Waltz for Debby
DYEAR=1900
DGENRE=Jazz
TTITLE0=Come Rain or Come Shine
TTITLE1=A Beautiful Rose
TTITLE2=Once Upon a Summertime
TTITLE3=So Long Big Time
TTITLE4=Waltz for Debby (Monica Vals)
TTITLE5=Lucky to Be Me
TTITLE6=Sorrow Wind (Vindarna Sucka)
TTITLE7=It Could Happen to You
TTITLE8=Some Other Time
TTITLE9=In the Night (Om Natten)
EXTD=
EXTT0=
EXTT1=
EXTT2=
EXTT3=
EXTT4=
EXTT5=
EXTT6=
EXTT7=
EXTT8=
EXTT9=
PLAYORDER=
